:SAMPLES-PER-SECOND 30
:FULLY-SPECIFIED
:DEGREES
273
root  -64.7593 39.9098 -1.81176 32.9336 85.2729 37.29
RightUpLeg  -19.3955 -0.405179 -6.31146
RightLeg  26.7772 1.35079 0.548646
RightFoot  -5.91483 -0.583472 11.4196
RightToes  -3.31784e-009 0 -3.6325e-017
Spine  10.0557 -0.587418 -8.86261
Spine1  2.23766 -1.92874 2.67402
HEad  -7.61867 3.99087 -2.93502
LeftShoulder1  -0.77151 5.58414 -30.9213
LeftArm  -1.89272 1.36657 -40.7402
LeftForeArm  22.0229 -32.6057 -5.94283
LeftHand  -0.00809186 7.56941 1.64476
RightShoulder  -1.26093 -6.90703 30.5512
RightArm  17.3367 -18.2411 37.8258
RightForeArm  18.0372 12.6964 5.97655
RightHand  -0.0744021 3.51398 -1.22805
LeftUpLeg  3.11263 6.90983 -3.95442
LeftLeg  14.762 5.26085 0.348528
LeftFoot  -12.8826 0.114937 2.79198
LeftToes  1.28511e-009 -3.60458e-011 6.16399e-011
274
root  -63.9195 39.8614 -1.92469 32.9377 85.0766 37.0581
RightUpLeg  -19.2305 -2.01601 -5.45737
RightLeg  16.9654 2.54762 0.562777
RightFoot  -5.66869 -0.586267 11.0242
RightToes  -3.31784e-009 0 -3.6325e-017
Spine  9.63674 -0.874432 -8.12522
Spine1  2.63259 -2.0153 2.45469
HEad  -7.76119 2.74625 -3.15333
LeftShoulder1  -0.762672 5.57609 -30.6327
LeftArm  -2.2727 1.1227 -40.8816
LeftForeArm  22.4786 -33.572 -6.16024
LeftHand  4.64944e-005 7.71276 1.96174
RightShoulder  -1.24337 -6.88366 30.2827
RightArm  15.4099 -18.1505 38.2353
RightForeArm  19.0238 11.9241 5.77026
RightHand  -0.00129373 3.92918 -0.268518
LeftUpLeg  4.68356 6.78808 -4.28387
LeftLeg  13.9184 5.62789 0.337084
LeftFoot  -13.7535 0.142639 2.85202
LeftToes  1.28511e-009 -3.60458e-011 6.16399e-011
275
root  -63.0317 39.7994 -2.02846 36.7117 84.8874 40.404
RightUpLeg  -19.1451 -5.30213 -4.46241
RightLeg  8.16531 5.427 0.61314
RightFoot  -5.46307 -0.593675 10.8143
RightToes  -3.31784e-009 0 -3.6325e-017
Spine  9.06798 -1.05001 -7.88278
Spine1  2.92784 -2.17079 2.87837
HEad  -7.79587 3.1097 -3.57901
LeftShoulder1  -0.821166 5.70942 -31.0682
LeftArm  -1.56465 0.824671 -40.6488
LeftForeArm  22.3486 -33.7047 -6.20224
LeftHand  0.00298437 7.90554 1.99101
RightShoulder  -1.19167 -6.7623 30.0612
RightArm  14.1456 -18.0263 38.4256
RightForeArm  19.7143 11.6527 5.48604
RightHand  0.0520502 3.52285 0.412014
LeftUpLeg  6.2643 6.29323 -5.03417
LeftLeg  12.658 6.13629 0.437102
LeftFoot  -14.3135 0.154934 2.66569
LeftToes  1.28511e-009 -3.60458e-011 6.16399e-011
276
root  -62.0716 39.6387 -2.08941 39.9354 84.7328 43.6684
RightUpLeg  -18.4917 -6.19993 -4.03739
RightLeg  0.806276 6.58706 0.373503
RightFoot  -6.24565 -0.586771 12.2109
RightToes  -3.31784e-009 0 -3.6325e-017
Spine  8.96873 -1.09046 -7.32134
Spine1  3.24496 -2.13467 2.73628
HEad  -7.93103 3.2101 -4.12356
LeftShoulder1  -0.82639 5.72724 -30.9998
LeftArm  -0.794995 1.03171 -41.0106
LeftForeArm  21.8592 -33.3774 -6.14743
LeftHand  0.00757858 7.93377 2.18945
RightShoulder  -1.22115 -6.81817 30.3386
RightArm  13.1044 -17.0813 38.5725
RightForeArm  19.9133 10.8396 5.43052
RightHand  0.0466857 4.39963 0.249864
LeftUpLeg  8.10956 6.43931 -5.35545
LeftLeg  12.3458 6.01288 0.286428
LeftFoot  -15.6619 0.184475 2.39116
LeftToes  1.28511e-009 -3.60458e-011 6.16399e-011
277
root  -61.0691 39.4223 -2.09881 39.8322 84.5137 43.7866
RightUpLeg  -18.1404 -5.72123 -3.65724
RightLeg  -2.85311 6.16628 -0.164523
RightFoot  -6.98639 -0.548603 13.0891
RightToes  -3.31784e-009 0 -3.6325e-017
Spine  9.12728 -0.904993 -6.76491
Spine1  3.58283 -1.9442 2.86785
HEad  -8.74128 4.21411 -4.63268
LeftShoulder1  -0.8888 5.88469 -31.1644
LeftArm  0.62462 1.27465 -41.5668
LeftForeArm  21.1797 -32.2663 -5.90685
LeftHand  0.0201758 7.83843 2.78818
RightShoulder  -1.21835 -6.84036 30.0104
RightArm  13.787 -16.6049 39.0415
RightForeArm  18.6716 11.8545 5.45676
RightHand  -0.0410226 3.63938 -0.782154
LeftUpLeg  10.0173 6.84211 -5.362
LeftLeg  12.5153 5.7771 0.235251
LeftFoot  -17.3163 0.211524 2.0671
LeftToes  1.28511e-009 -3.60458e-011 6.16399e-011
278
root  -60.0109 39.1481 -2.08504 43.0625 84.4588 46.9388
RightUpLeg  -19.4234 -5.71784 -3.53576
RightLeg  -0.00786738 3.69672 0.318311
RightFoot  -6.81145 -0.518406 11.8578
RightToes  -3.31784e-009 0 -3.6325e-017
Spine  9.28524 -0.799853 -6.28406
Spine1  3.42829 -1.83178 2.96577
HEad  -9.09258 3.44091 -5.1148
LeftShoulder1  -0.863496 5.7973 -31.4815
LeftArm  2.36544 1.95358 -41.8688
LeftForeArm  20.8513 -30.616 -5.52287
LeftHand  5.66145e-005 7.78376 1.91652
RightShoulder  -1.21109 -6.81529 30.0639
RightArm  13.9453 -15.4824 39.3137
RightForeArm  18.6149 12.1216 5.45882
RightHand  0.0165632 3.86868 -0.0907538
LeftUpLeg  11.4396 6.95829 -5.59484
LeftLeg  13.2 5.39219 0.510662
LeftFoot  -19.1212 0.203935 1.32504
LeftToes  1.28511e-009 -3.60458e-011 6.16399e-011
279
root  -58.8731 38.8682 -2.03435 46.4626 85.1434 50.5194
RightUpLeg  -19.6515 -5.73554 -3.09795
RightLeg  3.78508 0.603367 0.665871
RightFoot  -5.78656 -0.580619 10.98
RightToes  -3.31784e-009 0 -3.6325e-017
Spine  9.50112 -1.01761 -5.19894
Spine1  3.59724 -2.02492 2.95953
HEad  -9.02232 3.59663 -4.96659
LeftShoulder1  -0.86822 5.78839 -31.84
LeftArm  4.99785 2.70013 -42.1805
LeftForeArm  18.6599 -28.0963 -5.03892
LeftHand  0.0175563 7.87782 2.60769
RightShoulder  -1.25976 -6.92894 30.2811
RightArm  13.9944 -13.779 39.8079
RightForeArm  17.7777 12.1072 5.56571
RightHand  -0.0772225 2.62632 -1.31301
LeftUpLeg  13.1212 7.09785 -5.1141
LeftLeg  14.2952 4.28101 0.892923
LeftFoot  -21.0225 0.164452 0.444644
LeftToes  1.28511e-009 -3.60458e-011 6.16399e-011
280
root  -57.7064 38.7453 -1.95591 52.3764 86.3295 56.3548
RightUpLeg  -20.0826 -5.89552 -2.03985
RightLeg  7.64231 0.102705 0.676291
RightFoot  -3.06269 -0.45928 6.65463
RightToes  -3.31784e-009 0 -3.6325e-017
Spine  9.24707 -1.20221 -3.68733
Spine1  4.21027 -2.34029 3.72997
HEad  -9.50006 2.44478 -5.69995
LeftShoulder1  -0.820157 5.64078 -32.2171
LeftArm  7.86672 3.69153 -42.7606
LeftForeArm  17.2625 -24.7117 -4.44881
LeftHand  -0.00675188 7.57207 1.6966
RightShoulder  -1.24687 -6.91226 30.0824
RightArm  13.5511 -12.5702 40.4826
RightForeArm  17.4558 12.4081 5.42839
RightHand  -0.0436574 2.60147 -0.826993
LeftUpLeg  14.8504 6.54453 -4.13603
LeftLeg  14.5982 3.48437 1.19303
LeftFoot  -21.6829 0.0809492 -0.552602
LeftToes  1.28511e-009 -3.60458e-011 6.16399e-011
281
root  -56.5119 38.6902 -1.8443 74.799 88.1678 78.6252
RightUpLeg  -20.6849 -6.89112 -0.8922
RightLeg  10.8931 -0.465335 0.978059
RightFoot  3.38568 -0.224612 1.73004
RightToes  -3.31784e-009 0 -3.6325e-017
Spine  9.21359 -1.53016 -1.75176
Spine1  4.47198 -2.79094 4.6942
HEad  -8.7181 2.12787 -5.46497
LeftShoulder1  -0.790651 5.54625 -32.5405
LeftArm  9.51525 4.47438 -43.5114
LeftForeArm  17.4525 -20.4226 -4.80447
LeftHand  -0.00793186 8.46503 1.3461
RightShoulder  -1.27352 -6.96336 30.3107
RightArm  12.9783 -11.1473 40.6918
RightForeArm  17.2931 12.5622 5.27967
RightHand  -0.00848882 1.99637 -0.304861
LeftUpLeg  15.9347 5.08926 -2.57731
LeftLeg  15.9309 2.40892 1.20412
LeftFoot  -21.7943 -0.080409 -2.28681
LeftToes  1.28511e-009 -3.60458e-011 6.16399e-011
282
root  -55.224 38.5383 -1.70406 98.7096 89.8284 102.619
RightUpLeg  -21.3982 -6.45322 1.03967
RightLeg  15.8923 0.0850744 0.224102
RightFoot  4.63241 -0.0542151 0.587365
RightToes  -3.31784e-009 0 -3.6325e-017
Spine  9.32663 -1.50821 1.49123
Spine1  4.32785 -2.30609 4.061
HEad  -8.38797 1.28991 -5.17045
LeftShoulder1  -0.83382 5.62829 -33.0842
LeftArm  5.26924 5.87018 -43.6288
LeftForeArm  24.0639 -16.1557 -6.69799
LeftHand  -0.0701702 8.84259 -0.552381
RightShoulder  -1.33879 -7.10167 30.7224
RightArm  12.9576 -9.23781 40.88
RightForeArm  16.7216 12.4334 5.37976
RightHand  -0.0413996 3.24615 -0.79781
LeftUpLeg  16.1393 4.19159 -0.381276
LeftLeg  20.0284 1.45465 0.907762
LeftFoot  -22.0134 -0.344834 -5.09201
LeftToes  1.28511e-009 -3.60458e-011 6.16399e-011
283
root  -54.0378 38.4135 -1.61021 -51.6927 88.4795 -47.7067
RightUpLeg  -21.78 -6.39398 2.99406
RightLeg  20.293 1.12243 0.28017
RightFoot  3.09082 0.155908 -1.0776
RightToes  -3.31784e-009 0 -3.6325e-017
Spine  9.94279 -1.36483 5.63636
Spine1  3.90309 -1.28685 2.32714
HEad  -8.15474 0.67666 -5.70671
LeftShoulder1  -0.779047 5.47887 -33.2768
LeftArm  0.139036 8.48149 -43.4187
LeftForeArm  30.1398 -13.0711 -7.57941
LeftHand  -0.153068 9.84719 -2.51948
RightShoulder  -1.29975 -6.98607 30.8267
RightArm  12.1901 -6.78105 41.9171
RightForeArm  17.5992 11.224 5.58991
RightHand  -0.050423 3.10178 -0.922834
LeftUpLeg  14.9548 4.57904 1.92754
LeftLeg  26.2739 -0.194992 0.215743
LeftFoot  -20.4989 -0.62088 -9.40171
LeftToes  1.28511e-009 -3.60458e-011 6.16399e-011
284
root  -52.9334 38.3487 -1.45631 -73.4503 87.6566 -69.6516
RightUpLeg  -21.6955 -6.73123 4.18021
RightLeg  23.3297 1.24816 0.349633
RightFoot  0.972004 0.269426 -2.42159
RightToes  -3.31784e-009 0 -3.6325e-017
Spine  10.0121 -1.36187 7.94083
Spine1  4.03994 -0.84999 2.27413
HEad  -7.76451 1.20589 -5.35844
LeftShoulder1  -0.73913 5.37615 -33.3121
LeftArm  -3.13265 10.8673 -43.3162
LeftForeArm  33.6994 -10.5085 -7.98155
LeftHand  -0.137589 9.90925 -2.03639
RightShoulder  -1.23062 -6.8268 30.5234
RightArm  11.9428 -4.15609 43.0802
RightForeArm  17.9088 10.5213 5.77964
RightHand  -0.0101767 3.24644 -0.370205
LeftUpLeg  11.5397 4.48312 4.00061
LeftLeg  34.7805 -1.89888 -1.07446
LeftFoot  -15.373 -0.358501 -12.9873
LeftToes  1.28511e-009 -3.60458e-011 6.16399e-011
285
root  -51.8869 38.3489 -1.27491 -101.548 86.7761 -98.0229
RightUpLeg  -21.0135 -7.06707 5.20597
RightLeg  25.102 0.361904 -0.0490722
RightFoot  -1.31217 0.231516 -2.73187
RightToes  -3.31784e-009 0 -3.6325e-017
Spine  9.88237 -1.55335 9.90637
Spine1  4.01051 -0.757658 2.57748
HEad  -7.14692 -0.0925255 -5.33673
LeftShoulder1  -0.688596 5.2529 -33.2037
LeftArm  -4.09781 12.5555 -42.9306
LeftForeArm  35.7776 -8.74199 -8.29536
LeftHand  -0.194571 10.2257 -3.16063
RightShoulder  -1.19515 -6.77145 30.0636
RightArm  12.2725 -1.93983 44.164
RightForeArm  18.1934 11.2525 5.73594
RightHand  0.0150824 2.82714 -0.0109375
LeftUpLeg  6.36201 3.20787 5.93216
LeftLeg  44.5115 -2.42664 -2.10929
LeftFoot  -5.74069 0.625195 -13.0421
LeftToes  1.28511e-009 -3.60458e-011 6.16399e-011
